<svg xmlns="http://www.w3.org/2000/svg" xmlns:xlink="http://www.w3.org/1999/xlink" width="512"
    height="512" data-date-format="longDate">
    <svg width="512" height="512" x="50" y="50">
        <path fill="#1E9895"
            d="M29.953 64.268l170.128-51.95 169.01 36.65s18.017 157.198 1.019 207.561c-16.993 50.363-119.541 125.965-170.032 125.965-50.492 0-169.614-63.266-169.614-135.145-.001-71.874-.511-183.081-.511-183.081z" />
        <path opacity=".4" fill="#04424A"
            d="M200.075 387.945l-51.95-19.137v-.338c-27.678-12.365-52.777-28.162-72.838-45.881-31.483-27.805-48.818-58.822-48.818-87.336V72.439l.55-.233a21.559 21.559 0 0115.463-16.159l.146-.125 2.091-.394c51.44-9.092 113.178-29.843 145.401-41.402 3.324-1.2 6.681-1.809 9.962-1.809 3.28 0 6.536.588 9.942 1.805 32.282 11.577 94.096 32.353 145.549 41.429l2.207.391.167.153c8.485 2.385 14.797 9.747 15.699 18.678l.04.78v159.7c0 28.514-17.338 59.531-48.814 87.336-21.194 18.719-48.014 35.299-77.557 47.936l-.37.15-46.87 17.27zm-41.217-31.746l41.217 15.18 41.309-15.215c27.964-11.992 53.272-27.623 73.198-45.227 28.093-24.809 43.562-51.688 43.562-75.684V76.027a6.136 6.136 0 00-5.116-5.124l-2.91-.461-.076-.091c-51.99-9.519-113.103-30.061-145.248-41.594-3.447-1.229-6.093-1.205-9.407-.005-32.122 11.52-93.171 32.043-145.145 41.575l-.086.103-2.921.474a6.12 6.12 0 00-5.193 5.956l.138 3.352-.168.204v154.84c0 23.996 15.474 50.875 43.563 75.684 19.946 17.617 45.286 33.267 73.283 45.259z" />
        <path fill="#04424A"
            d="M385.849 59.964c-.286-5.966-5.014-10.756-10.954-11.135l-.016-.015C318.94 36.729 253.485 16.637 216.375 3.193c-.002-.002-.005-.002-.008-.003-12.072-4.307-22.171-4.199-32.583 0h-.003C146.677 16.633 79.612 40.119 25.118 48.814l-.014.015a11.72 11.72 0 00-10.953 11.135l-.028.03v175.278c0 74.807 102.636 147.223 182.002 164.041v-.002c.04.012.081.018.121.029.546.191 1.113.348 1.695.453.09.018.177.027.262.041.593.096 1.196.16 1.812.164l.042.002h.035l.042-.002a11.772 11.772 0 001.813-.164c.088-.014.177-.023.261-.041a11.218 11.218 0 001.7-.453c.039-.012.082-.018.119-.029v.002c109.588-32.959 181.851-95.738 181.851-164.041V59.994l-.029-.03zm-19.937 175.307c0 26.254-16.4 55.201-46.189 81.512-20.848 18.414-46.73 34.322-75.467 46.619l-44.183 16.275-44.179-16.27v-.006c-28.734-12.297-54.62-28.205-75.468-46.619-29.785-26.311-46.188-55.258-46.188-81.512V77.615l.047-.021.013-.013c-.008-.197-.03-.388-.03-.588 0-6.952 5.098-12.698 11.754-13.749l.01-.012.04-.033C97.298 54.144 158.063 33.9 192.74 21.46h.002c5.783-2.089 10.465-1.5 14.668 0h.004c34.711 12.452 95.551 32.719 146.806 41.762l.005.009.012.012c6.2.979 11.038 6.027 11.676 12.329v159.699z" />
    </svg>
    <svg viewBox="0 0 512 512" width="380" height="380" x="150" y="150">
        <path
            d="M128 2C94.4 2 62.8 15.2 39 39c-2.4 2.4-2.4 6.198 0 8.398 2.4 2.4 6.198 2.4 8.398 0C68.998 25.798 97.6 14 128 14c62.8 0 114 51.2 114 114s-51.2 114-114 114c-32 0-61.6-13-83.2-36H68c3.4 0 6-2.6 6-6s-2.6-6-6-6H32c-3.4 0-6 2.6-6 6v36c0 3.4 2.6 6 6 6s6-2.6 6-6v-19.8c23.6 24.2 55.6 37.8 90 37.8 69.4 0 126-56.6 126-126S197.4 2 128 2zM20.68 69.023c-2.344-.112-4.63 1.125-5.68 3.375C9.2 84.398 5.198 97 3.398 110.2c-.4 3.2 1.8 6.401 5 6.801H9.2c3 0 5.6-2.2 6-5.2 1.6-12 5.202-23.398 10.602-34.198 1.4-3 .199-6.6-2.801-8a6.19 6.19 0 00-2.32-.579zM128 73c-15.4 0-28 12.6-28 28v18h-2c-5.6 0-10 4.4-10 10v14c0 22 18 40 40 40s40-18 40-40v-14c0-5.6-4.4-10-10-10h-2.2c0-.4.2-.6.2-1v-17c0-15.4-12.6-28-28-28zm0 12c8.8 0 16 7.2 16 16v17c0 .4 0 .6.2 1H112v-18c0-8.8 7.2-16 16-16zm0 51.398c3.4 0 6 2.6 6 6V152c0 3.4-2.6 6-6 6s-6-2.6-6-6v-9.602c0-3.4 2.6-6 6-6zM9.996 142.703a5.744 5.744 0 00-1.195.098c-3.2.6-5.401 3.6-4.801 7 1.2 6.8 2.998 13.798 5.398 20.398.8 2.4 3.202 4 5.602 4 .6 0 1.4-.198 2-.398 3.2-1.2 4.802-4.602 3.602-7.602-2.2-6-3.801-12.198-4.801-18.398-.525-2.975-3.04-5.032-5.805-5.098z"
            stroke-miterlimit="10" font-family="none" font-weight="none" font-size="none"
            text-anchor="none" />
    </svg>
</svg>